<mxfile host="Electron" modified="2023-05-29T11:35:32.792Z" agent="Mozilla/5.0 (Windows NT 10.0; Win64; x64) AppleWebKit/537.36 (KHTML, like Gecko) draw.io/21.2.8 Chrome/112.0.5615.165 Electron/24.2.0 Safari/537.36" etag="LSrcl-LiHCD1ODUzCVzM" version="21.2.8" type="device">
  <diagram id="ys3xKlb_GsDn074I-htH" name="pre_stage_unit">
    <mxGraphModel dx="778" dy="557" grid="1" gridSize="10" guides="1" tooltips="1" connect="1" arrows="1" fold="1" page="1" pageScale="1" pageWidth="827" pageHeight="1169" math="0" shadow="0">
      <root>
        <mxCell id="0" />
        <mxCell id="1" parent="0" />
        <mxCell id="eJ2dMlPmiUjp7UvfucFv-2" value="" style="endArrow=classic;html=1;rounded=0;entryX=0.75;entryY=0;entryDx=0;entryDy=0;edgeStyle=orthogonalEdgeStyle;" parent="1" target="eJ2dMlPmiUjp7UvfucFv-7" edge="1">
          <mxGeometry width="50" height="50" relative="1" as="geometry">
            <mxPoint x="200" y="80" as="sourcePoint" />
            <mxPoint x="200" y="160" as="targetPoint" />
            <Array as="points">
              <mxPoint x="200" y="200" />
              <mxPoint x="160" y="200" />
            </Array>
          </mxGeometry>
        </mxCell>
        <mxCell id="eJ2dMlPmiUjp7UvfucFv-3" value="i_valid" style="edgeLabel;html=1;align=center;verticalAlign=middle;resizable=0;points=[];fontStyle=1" parent="eJ2dMlPmiUjp7UvfucFv-2" vertex="1" connectable="0">
          <mxGeometry x="-0.4393" relative="1" as="geometry">
            <mxPoint x="-20" y="-16" as="offset" />
          </mxGeometry>
        </mxCell>
        <mxCell id="eJ2dMlPmiUjp7UvfucFv-4" value="" style="shape=flexArrow;endArrow=classic;html=1;rounded=0;fillColor=#8A8A8A;strokeColor=none;entryX=0.75;entryY=0;entryDx=0;entryDy=0;" parent="1" target="eJ2dMlPmiUjp7UvfucFv-14" edge="1">
          <mxGeometry width="50" height="50" relative="1" as="geometry">
            <mxPoint x="365" y="80" as="sourcePoint" />
            <mxPoint x="320" y="160" as="targetPoint" />
          </mxGeometry>
        </mxCell>
        <mxCell id="eJ2dMlPmiUjp7UvfucFv-6" value="i_vector" style="edgeLabel;html=1;align=center;verticalAlign=middle;resizable=0;points=[];fontStyle=1" parent="eJ2dMlPmiUjp7UvfucFv-4" vertex="1" connectable="0">
          <mxGeometry x="-0.2056" y="-2" relative="1" as="geometry">
            <mxPoint x="-28" y="-24" as="offset" />
          </mxGeometry>
        </mxCell>
        <mxCell id="eJ2dMlPmiUjp7UvfucFv-7" value="DATA WORD COUNTER" style="rounded=0;whiteSpace=wrap;html=1;fontStyle=1;fillColor=#dae8fc;strokeColor=#6c8ebf;" parent="1" vertex="1">
          <mxGeometry x="70" y="240" width="120" height="60" as="geometry" />
        </mxCell>
        <mxCell id="eJ2dMlPmiUjp7UvfucFv-8" value="" style="endArrow=classic;html=1;rounded=0;exitX=0.5;exitY=1;exitDx=0;exitDy=0;entryX=0.25;entryY=0;entryDx=0;entryDy=0;" parent="1" source="eJ2dMlPmiUjp7UvfucFv-7" target="eJ2dMlPmiUjp7UvfucFv-7" edge="1">
          <mxGeometry width="50" height="50" relative="1" as="geometry">
            <mxPoint x="160" y="350" as="sourcePoint" />
            <mxPoint x="130" y="380" as="targetPoint" />
            <Array as="points">
              <mxPoint x="130" y="320" />
              <mxPoint x="90" y="320" />
              <mxPoint x="40" y="320" />
              <mxPoint x="40" y="180" />
              <mxPoint x="100" y="180" />
            </Array>
          </mxGeometry>
        </mxCell>
        <mxCell id="eJ2dMlPmiUjp7UvfucFv-9" value="w_LastWordOfVector" style="edgeLabel;html=1;align=center;verticalAlign=middle;resizable=0;points=[];fontStyle=0" parent="eJ2dMlPmiUjp7UvfucFv-8" vertex="1" connectable="0">
          <mxGeometry x="-0.4667" y="3" relative="1" as="geometry">
            <mxPoint x="49" y="17" as="offset" />
          </mxGeometry>
        </mxCell>
        <mxCell id="eJ2dMlPmiUjp7UvfucFv-13" value="" style="endArrow=classic;html=1;rounded=0;entryX=0.25;entryY=0;entryDx=0;entryDy=0;" parent="1" source="eJ2dMlPmiUjp7UvfucFv-10" target="eJ2dMlPmiUjp7UvfucFv-14" edge="1">
          <mxGeometry width="50" height="50" relative="1" as="geometry">
            <mxPoint x="130" y="320" as="sourcePoint" />
            <mxPoint x="230" y="320" as="targetPoint" />
            <Array as="points">
              <mxPoint x="210" y="320" />
              <mxPoint x="210" y="220" />
              <mxPoint x="275" y="220" />
            </Array>
          </mxGeometry>
        </mxCell>
        <mxCell id="eJ2dMlPmiUjp7UvfucFv-14" value="BIT COUNTER MODULE" style="rounded=0;whiteSpace=wrap;html=1;fontStyle=1;fillColor=#dae8fc;strokeColor=#6c8ebf;" parent="1" vertex="1">
          <mxGeometry x="230" y="240" width="180" height="60" as="geometry" />
        </mxCell>
        <mxCell id="eJ2dMlPmiUjp7UvfucFv-16" value="" style="endArrow=classic;html=1;rounded=0;" parent="1" target="eJ2dMlPmiUjp7UvfucFv-10" edge="1">
          <mxGeometry width="50" height="50" relative="1" as="geometry">
            <mxPoint x="130" y="320" as="sourcePoint" />
            <mxPoint x="230" y="320" as="targetPoint" />
          </mxGeometry>
        </mxCell>
        <mxCell id="eJ2dMlPmiUjp7UvfucFv-10" value="" style="shape=waypoint;sketch=0;fillStyle=solid;size=6;pointerEvents=1;points=[];fillColor=none;resizable=0;rotatable=0;perimeter=centerPerimeter;snapToPoint=1;" parent="1" vertex="1">
          <mxGeometry x="120" y="310" width="20" height="20" as="geometry" />
        </mxCell>
        <mxCell id="eJ2dMlPmiUjp7UvfucFv-21" value="" style="endArrow=classic;html=1;rounded=0;entryX=0.5;entryY=0;entryDx=0;entryDy=0;" parent="1" source="eJ2dMlPmiUjp7UvfucFv-18" target="eJ2dMlPmiUjp7UvfucFv-14" edge="1">
          <mxGeometry width="50" height="50" relative="1" as="geometry">
            <mxPoint x="200" y="200" as="sourcePoint" />
            <mxPoint x="210" y="190" as="targetPoint" />
            <Array as="points">
              <mxPoint x="320" y="200" />
            </Array>
          </mxGeometry>
        </mxCell>
        <mxCell id="eJ2dMlPmiUjp7UvfucFv-22" value="" style="endArrow=classic;html=1;rounded=0;entryDx=0;entryDy=0;" parent="1" target="eJ2dMlPmiUjp7UvfucFv-18" edge="1">
          <mxGeometry width="50" height="50" relative="1" as="geometry">
            <mxPoint x="200" y="200" as="sourcePoint" />
            <mxPoint x="290" y="240" as="targetPoint" />
            <Array as="points" />
          </mxGeometry>
        </mxCell>
        <mxCell id="eJ2dMlPmiUjp7UvfucFv-18" value="" style="shape=waypoint;sketch=0;fillStyle=solid;size=6;pointerEvents=1;points=[];fillColor=none;resizable=0;rotatable=0;perimeter=centerPerimeter;snapToPoint=1;" parent="1" vertex="1">
          <mxGeometry x="190" y="190" width="20" height="20" as="geometry" />
        </mxCell>
        <mxCell id="eJ2dMlPmiUjp7UvfucFv-23" value="" style="shape=flexArrow;endArrow=classic;html=1;rounded=0;fillColor=#8A8A8A;strokeColor=none;entryX=0.5;entryY=0;entryDx=0;entryDy=0;" parent="1" target="eJ2dMlPmiUjp7UvfucFv-25" edge="1">
          <mxGeometry width="50" height="50" relative="1" as="geometry">
            <mxPoint x="360" y="160" as="sourcePoint" />
            <mxPoint x="440" y="280" as="targetPoint" />
            <Array as="points">
              <mxPoint x="520" y="160" />
            </Array>
          </mxGeometry>
        </mxCell>
        <mxCell id="eJ2dMlPmiUjp7UvfucFv-25" value="VECTOR SHR" style="rounded=0;whiteSpace=wrap;html=1;fontStyle=1;fillColor=#dae8fc;strokeColor=#6c8ebf;" parent="1" vertex="1">
          <mxGeometry x="460" y="275" width="120" height="90" as="geometry" />
        </mxCell>
        <mxCell id="eJ2dMlPmiUjp7UvfucFv-26" value="CNT SHR" style="rounded=0;whiteSpace=wrap;html=1;fontStyle=1;fillColor=#dae8fc;strokeColor=#6c8ebf;" parent="1" vertex="1">
          <mxGeometry x="320" y="380" width="90" height="50" as="geometry" />
        </mxCell>
        <mxCell id="eJ2dMlPmiUjp7UvfucFv-28" value="" style="shape=flexArrow;endArrow=classic;html=1;rounded=0;fillColor=#8A8A8A;strokeColor=none;exitX=0.5;exitY=1;exitDx=0;exitDy=0;" parent="1" source="eJ2dMlPmiUjp7UvfucFv-26" edge="1">
          <mxGeometry width="50" height="50" relative="1" as="geometry">
            <mxPoint x="260" y="440" as="sourcePoint" />
            <mxPoint x="365" y="480" as="targetPoint" />
            <Array as="points">
              <mxPoint x="365" y="450" />
            </Array>
          </mxGeometry>
        </mxCell>
        <mxCell id="eJ2dMlPmiUjp7UvfucFv-31" value="o_Cnt" style="edgeLabel;html=1;align=center;verticalAlign=middle;resizable=0;points=[];fontStyle=1" parent="eJ2dMlPmiUjp7UvfucFv-28" vertex="1" connectable="0">
          <mxGeometry x="-0.1079" y="-3" relative="1" as="geometry">
            <mxPoint x="-27" y="-1" as="offset" />
          </mxGeometry>
        </mxCell>
        <mxCell id="eJ2dMlPmiUjp7UvfucFv-29" value="" style="shape=flexArrow;endArrow=classic;html=1;rounded=0;fillColor=#8A8A8A;strokeColor=none;exitX=0.75;exitY=1;exitDx=0;exitDy=0;entryX=0.5;entryY=0;entryDx=0;entryDy=0;" parent="1" source="eJ2dMlPmiUjp7UvfucFv-14" target="eJ2dMlPmiUjp7UvfucFv-26" edge="1">
          <mxGeometry width="50" height="50" relative="1" as="geometry">
            <mxPoint x="300" y="420" as="sourcePoint" />
            <mxPoint x="310" y="550.952380952381" as="targetPoint" />
          </mxGeometry>
        </mxCell>
        <mxCell id="eJ2dMlPmiUjp7UvfucFv-30" value="" style="shape=flexArrow;endArrow=classic;html=1;rounded=0;fillColor=#8A8A8A;strokeColor=none;exitX=0.5;exitY=1;exitDx=0;exitDy=0;" parent="1" source="eJ2dMlPmiUjp7UvfucFv-25" edge="1">
          <mxGeometry width="50" height="50" relative="1" as="geometry">
            <mxPoint x="460" y="420" as="sourcePoint" />
            <mxPoint x="520" y="480" as="targetPoint" />
          </mxGeometry>
        </mxCell>
        <mxCell id="eJ2dMlPmiUjp7UvfucFv-32" value="o_SubVector" style="edgeLabel;html=1;align=center;verticalAlign=middle;resizable=0;points=[];fontStyle=1" parent="eJ2dMlPmiUjp7UvfucFv-30" vertex="1" connectable="0">
          <mxGeometry x="-0.3175" relative="1" as="geometry">
            <mxPoint x="-50" y="46" as="offset" />
          </mxGeometry>
        </mxCell>
        <mxCell id="eJ2dMlPmiUjp7UvfucFv-33" value="" style="endArrow=classic;startArrow=classic;html=1;rounded=0;" parent="1" edge="1">
          <mxGeometry width="50" height="50" relative="1" as="geometry">
            <mxPoint x="450" y="365" as="sourcePoint" />
            <mxPoint x="450" y="275" as="targetPoint" />
          </mxGeometry>
        </mxCell>
        <mxCell id="eJ2dMlPmiUjp7UvfucFv-34" value="DELAY + SHR_DEPTH" style="edgeLabel;html=1;align=center;verticalAlign=middle;resizable=0;points=[];rotation=-90;" parent="eJ2dMlPmiUjp7UvfucFv-33" vertex="1" connectable="0">
          <mxGeometry x="0.2978" y="-1" relative="1" as="geometry">
            <mxPoint x="-21" y="13" as="offset" />
          </mxGeometry>
        </mxCell>
        <mxCell id="eJ2dMlPmiUjp7UvfucFv-39" value="" style="endArrow=classic;startArrow=classic;html=1;rounded=0;" parent="1" edge="1">
          <mxGeometry width="50" height="50" relative="1" as="geometry">
            <mxPoint x="310" y="430" as="sourcePoint" />
            <mxPoint x="310" y="380" as="targetPoint" />
          </mxGeometry>
        </mxCell>
        <mxCell id="eJ2dMlPmiUjp7UvfucFv-40" value="SHR_DEPTH" style="edgeLabel;html=1;align=center;verticalAlign=middle;resizable=0;points=[];rotation=-90;" parent="eJ2dMlPmiUjp7UvfucFv-39" vertex="1" connectable="0">
          <mxGeometry x="0.2089" relative="1" as="geometry">
            <mxPoint x="-20" y="5" as="offset" />
          </mxGeometry>
        </mxCell>
        <mxCell id="eJ2dMlPmiUjp7UvfucFv-41" value="" style="endArrow=classic;html=1;rounded=0;exitX=0.133;exitY=1.003;exitDx=0;exitDy=0;exitPerimeter=0;entryX=1;entryY=0.5;entryDx=0;entryDy=0;" parent="1" source="eJ2dMlPmiUjp7UvfucFv-14" target="eJ2dMlPmiUjp7UvfucFv-46" edge="1">
          <mxGeometry width="50" height="50" relative="1" as="geometry">
            <mxPoint x="240" y="330" as="sourcePoint" />
            <mxPoint x="250" y="360" as="targetPoint" />
          </mxGeometry>
        </mxCell>
        <mxCell id="eJ2dMlPmiUjp7UvfucFv-43" value="w_SumNew" style="edgeLabel;html=1;align=center;verticalAlign=middle;resizable=0;points=[];" parent="eJ2dMlPmiUjp7UvfucFv-41" vertex="1" connectable="0">
          <mxGeometry x="0.1386" relative="1" as="geometry">
            <mxPoint x="-40" y="19" as="offset" />
          </mxGeometry>
        </mxCell>
        <mxCell id="eJ2dMlPmiUjp7UvfucFv-46" value="&lt;font style=&quot;font-size: 9px;&quot;&gt;D_FF_ARR&lt;/font&gt;" style="rounded=0;whiteSpace=wrap;html=1;rotation=-90;fontStyle=1;fillColor=#f5f5f5;fontColor=#333333;strokeColor=#666666;" parent="1" vertex="1">
          <mxGeometry x="230" y="391.25" width="48.12" height="27.5" as="geometry" />
        </mxCell>
        <mxCell id="eJ2dMlPmiUjp7UvfucFv-47" value="" style="endArrow=classic;html=1;rounded=0;exitX=0;exitY=0.5;exitDx=0;exitDy=0;" parent="1" source="eJ2dMlPmiUjp7UvfucFv-46" edge="1">
          <mxGeometry width="50" height="50" relative="1" as="geometry">
            <mxPoint x="190" y="490" as="sourcePoint" />
            <mxPoint x="254" y="480" as="targetPoint" />
          </mxGeometry>
        </mxCell>
        <mxCell id="eJ2dMlPmiUjp7UvfucFv-48" value="o_CntNew" style="edgeLabel;html=1;align=center;verticalAlign=middle;resizable=0;points=[];fontStyle=1" parent="eJ2dMlPmiUjp7UvfucFv-47" vertex="1" connectable="0">
          <mxGeometry x="-0.4226" y="1" relative="1" as="geometry">
            <mxPoint x="-35" y="6" as="offset" />
          </mxGeometry>
        </mxCell>
      </root>
    </mxGraphModel>
  </diagram>
</mxfile>
